<svg xmlns="http://www.w3.org/2000/svg" width="38" height="38" viewBox="0 0 38 38">
  <g id="Group_1188" data-name="Group 1188" transform="translate(-1146.95 436.62)">
    <g id="Group_1187" data-name="Group 1187" transform="translate(1146.95 -436.62)">
      <path id="Path_411" data-name="Path 411" d="M1177.352-430.823a18.923,18.923,0,0,0-11.4-3.8,18.937,18.937,0,0,0-13.433,5.563,18.939,18.939,0,0,0-5.567,13.437,19,19,0,0,0,19,19,19,19,0,0,0,18.99-18.512q.011-.244.011-.488v-19A9.491,9.491,0,0,0,1177.352-430.823Zm-11.4,15.2a9.494,9.494,0,0,0,4.749,8.228,9.436,9.436,0,0,1-4.749,1.274,9.5,9.5,0,0,1-9.5-9.5,9.5,9.5,0,0,1,9.5-9.5,9.5,9.5,0,0,1,9.5,9.5Z" transform="translate(-1146.95 434.62)" fill="#1a1a1a"/>
    </g>
  </g>
</svg>
