<svg xmlns="http://www.w3.org/2000/svg" width="17.009" height="17" viewBox="0 0 17.009 17">
  <g id="attach-interface-clip-symbol" transform="translate(12.524 -0.146)">
    <g id="Group_335" data-name="Group 335" transform="translate(-12.524 0.146)">
      <path id="Path_273" data-name="Path 273" d="M11.08,7.579a1.076,1.076,0,0,0,.047-1.6,1.149,1.149,0,0,0-1.647,0L8.056,7.4a3.476,3.476,0,0,0-.177,5.024,3.532,3.532,0,0,0,5.074-.127l2.4-2.4a5.664,5.664,0,0,0,0-8l-.1-.1a5.663,5.663,0,0,0-8,0l-5.6,5.6a5.664,5.664,0,0,0,0,8l.1.1a5.621,5.621,0,0,0,6.48,1.06c.585-.286,1.221-.829.8-1.59A1.175,1.175,0,0,0,7.4,14.529,3.952,3.952,0,0,1,3.351,13.9l-.1-.1a3.4,3.4,0,0,1,0-4.8l5.6-5.6a3.4,3.4,0,0,1,4.8,0l.1.1a3.4,3.4,0,0,1,0,4.8l-2.4,2.4a1.274,1.274,0,0,1-1.873.127A1.223,1.223,0,0,1,9.657,9Z" transform="translate(0 -0.146)" fill="#fff"/>
    </g>
  </g>
</svg>
