<svg xmlns="http://www.w3.org/2000/svg" width="20" height="12.589" viewBox="0 0 20 12.589">
  <g id="Group_481" data-name="Group 481" transform="translate(-24.842 -486.729)">
    <path id="Path_203" data-name="Path 203" d="M6144.4-593.873a3.422,3.422,0,0,0-.4-1.265,2.766,2.766,0,0,0-.631-.763,3.137,3.137,0,0,0-.855-.5,2.646,2.646,0,0,0-.3-.106c-.01,0-.025-.005-.027-.016s.013-.019.024-.024c.036-.018.071-.039.106-.058a3.187,3.187,0,0,0,.883-.686,2.386,2.386,0,0,0,.495-.865,2.972,2.972,0,0,0,.138-.819,4.574,4.574,0,0,0-.03-.731,2.89,2.89,0,0,0-.33-1.063,2.414,2.414,0,0,0-.613-.728,3.017,3.017,0,0,0-.867-.472,5.482,5.482,0,0,0-1.388-.281c-.19-.017-.381-.018-.572-.018h-6.142a.014.014,0,0,0-.012.005.012.012,0,0,0,0,.01v12.533a.073.073,0,0,0,0,.041h6.334c.08-.008.16,0,.24-.008.122-.006.244-.008.364-.024a6.737,6.737,0,0,0,.833-.166,4.607,4.607,0,0,0,1.03-.412,3.393,3.393,0,0,0,.984-.791,3.265,3.265,0,0,0,.52-.849,3.536,3.536,0,0,0,.248-1.23A4.433,4.433,0,0,0,6144.4-593.873Zm-7.762-6.2c0-.028,0-.045.038-.044.882,0,1.764,0,2.646,0a2.848,2.848,0,0,1,.946.146,1.234,1.234,0,0,1,.739.638,1.424,1.424,0,0,1,.125.573,1.945,1.945,0,0,1-.092.7,1.153,1.153,0,0,1-.592.662,2.031,2.031,0,0,1-.778.211c-.107.009-.213.008-.32.009h-1.209c-.486,0-.972,0-1.458,0-.037,0-.046-.01-.046-.046Q6136.644-598.645,6136.643-600.073Zm4.961,7.044a1.337,1.337,0,0,1-.807.982,2.541,2.541,0,0,1-.751.19,5.075,5.075,0,0,1-.591.025q-1.381,0-2.763,0c-.04,0-.05-.01-.05-.05,0-.56,0-1.12,0-1.679s0-1.12,0-1.68c0-.038.01-.048.049-.048h2.95a2.89,2.89,0,0,1,.887.122,1.781,1.781,0,0,1,.637.343,1.315,1.315,0,0,1,.412.7A2.432,2.432,0,0,1,6141.6-593.029Z" transform="translate(-6109.032 1089)" fill="#a1a1a6"/>
    <path id="Path_204" data-name="Path 204" d="M6153.759-595.539a5.272,5.272,0,0,0-.665-1.756,4.074,4.074,0,0,0-1.769-1.592,4.058,4.058,0,0,0-1.345-.356,5.429,5.429,0,0,0-1.378.037,4.4,4.4,0,0,0-1.212.373,4.353,4.353,0,0,0-1.833,1.593,4.924,4.924,0,0,0-.764,2.391,6.057,6.057,0,0,0,.073,1.428,4.849,4.849,0,0,0,.627,1.707,3.951,3.951,0,0,0,1.323,1.348,4.7,4.7,0,0,0,2.173.669,2.029,2.029,0,0,1,.22.015h.458a.073.073,0,0,1,.041-.006c.119,0,.238-.014.357-.026a4.768,4.768,0,0,0,1.326-.318,3.51,3.51,0,0,0,1.573-1.2,5.2,5.2,0,0,0,.688-1.357l.046-.139-.025,0h-2.146c-.027,0-.035.011-.042.033a.894.894,0,0,1-.12.246,2.07,2.07,0,0,1-1.155.811,2.82,2.82,0,0,1-1.514-.013,1.7,1.7,0,0,1-1.21-1.093,3.175,3.175,0,0,1-.177-.781c-.011-.1-.016-.2-.025-.3,0-.023,0-.034.029-.031a.228.228,0,0,0,.037,0h6.484c.02,0,.025-.008.026-.027,0-.036.005-.072.006-.108A6.512,6.512,0,0,0,6153.759-595.539Zm-2.445.094c-.095,0-.189,0-.284,0h-3.7c-.053,0-.053,0-.047-.051a2.472,2.472,0,0,1,.191-.763,1.823,1.823,0,0,1,1.333-1.07,2.618,2.618,0,0,1,1.213.026,1.478,1.478,0,0,1,.926.71,3.23,3.23,0,0,1,.367.967c.011.046.018.093.03.139S6151.35-595.444,6151.314-595.445Z" transform="translate(-6109.032 1089)" fill="#a1a1a6"/>
    <path id="Path_205" data-name="Path 205" d="M6133.874-602.267l.009,0v12.583s-.009,0-.008,0v-12.581Z" transform="translate(-6109.032 1089)" fill="#a1a1a6"/>
    <path id="Path_206" data-name="Path 206" d="M6149.4-600.217h-2.5c-.04,0-.05-.009-.05-.049q0-.658,0-1.317c0-.036.009-.046.046-.046h5c.039,0,.048.011.047.048q0,.659,0,1.317c0,.037-.008.047-.047.047Z" transform="translate(-6109.032 1089)" fill="#a1a1a6"/>
  </g>
</svg>
