<svg id="Group_713" data-name="Group 713" xmlns="http://www.w3.org/2000/svg" width="28.028" height="21" viewBox="0 0 28.028 21">
  <g id="Group_748" data-name="Group 748">
    <path id="Path_316" data-name="Path 316" d="M350.985,391.9V403.15c-.01.014-.026.027-.03.042a2.571,2.571,0,0,1-2.8,2.086H325.791c-.091,0-.183,0-.274,0a2.515,2.515,0,0,1-2.557-2.5c-.005-3.892,0-6.784,0-10.676a1.87,1.87,0,0,1,.022-.2c.049.026.074.036.1.051l11.354,7.21a4.392,4.392,0,0,0,5.079,0q5.075-3.219,10.149-6.441C350.1,392.441,350.544,392.172,350.985,391.9Z" transform="translate(-322.958 -384.278)" fill="#949499"/>
    <path id="Path_317" data-name="Path 317" d="M351,313.009a3.446,3.446,0,0,1-.325.79,3.2,3.2,0,0,1-.809.828q-5.707,3.655-11.442,7.272a2.546,2.546,0,0,1-2.879,0q-5.744-3.626-11.47-7.28a2.267,2.267,0,0,1-1-2.6,2.558,2.558,0,0,1,2.379-1.805c.082-.005.164-.006.246-.006h22.578a2.6,2.6,0,0,1,2.589,1.683c.052.146.091.3.136.445Z" transform="translate(-322.977 -310.204)" fill="#949499"/>
  </g>
</svg>
