<svg xmlns="http://www.w3.org/2000/svg" width="20" height="20" viewBox="0 0 20 20">
  <g id="Group_175" data-name="Group 175" transform="translate(-6133.874 642.601)">
    <path id="Path_197" data-name="Path 197" d="M6150.944-642.6H6136.8a2.931,2.931,0,0,0-2.929,2.93v14.141a2.93,2.93,0,0,0,2.929,2.929h14.141a2.931,2.931,0,0,0,2.93-2.929v-14.141A2.932,2.932,0,0,0,6150.944-642.6Zm-7.07,15.572a5.571,5.571,0,0,1-5.572-5.572,5.572,5.572,0,0,1,5.572-5.572,5.571,5.571,0,0,1,5.571,5.572A5.571,5.571,0,0,1,6143.874-627.029Zm6.445-10.7a1.28,1.28,0,0,1-1.281-1.281,1.281,1.281,0,0,1,1.281-1.281,1.282,1.282,0,0,1,1.281,1.281A1.281,1.281,0,0,1,6150.319-637.726Z" fill="#d7d7d9"/>
    <circle id="Ellipse_40" data-name="Ellipse 40" cx="3.976" cy="3.976" r="3.976" transform="translate(6139.897 -636.538)" fill="#d7d7d9"/>
  </g>
</svg>
