<svg xmlns="http://www.w3.org/2000/svg" width="26.13" height="21.606" viewBox="0 0 26.13 21.606">
  <path id="Path_313" data-name="Path 313" d="M88.322,155.467s11.557-4.743,15.565-6.413c1.536-.668,6.747-2.806,6.747-2.806s2.4-.935,2.2,1.336c-.067.935-.6,4.208-1.136,7.749-.8,5.01-1.67,10.488-1.67,10.488s-.134,1.536-1.269,1.8-3.006-.935-3.34-1.2c-.267-.2-5.01-3.206-6.747-4.676a1.266,1.266,0,0,1,.067-2.138c2.4-2.2,5.277-4.943,7.014-6.68.8-.8,1.6-2.672-1.737-.4-4.743,3.273-9.419,6.346-9.419,6.346a3.925,3.925,0,0,1-3.073.067c-2-.6-4.342-1.4-4.342-1.4S85.583,156.536,88.322,155.467Z" transform="translate(-86.72 -146.058)" fill="#b9b9bf"/>
</svg>
