<svg xmlns="http://www.w3.org/2000/svg" width="20" height="14.182" viewBox="0 0 20 14.182">
  <g id="Group_181" data-name="Group 181" transform="translate(-6133.874 676.783)">
    <path id="Path_207" data-name="Path 207" d="M6149.341-668.725a4.091,4.091,0,0,1-2.565-1.023l.191-.9.008-.033c.17-.953.708-2.552,2.366-2.552a2.257,2.257,0,0,1,2.254,2.254,2.26,2.26,0,0,1-2.254,2.249Zm0-6.786a4.593,4.593,0,0,0-4.425,3.638,18.642,18.642,0,0,1-2.242-4.91H6140.4v5.929a2.125,2.125,0,0,1-2.121,2.121,2.126,2.126,0,0,1-2.122-2.121v-5.929h-2.278v5.929a4.411,4.411,0,0,0,4.4,4.421,4.424,4.424,0,0,0,4.4-4.421v-.995a14.181,14.181,0,0,0,1.645,2.685l-1.4,6.563h2.332l1.011-4.76a5.618,5.618,0,0,0,3.075.924,4.551,4.551,0,0,0,4.533-4.546,4.539,4.539,0,0,0-4.533-4.528Z" fill="#a1a1a6"/>
  </g>
</svg>
