<svg xmlns="http://www.w3.org/2000/svg" width="22.878" height="22.91" viewBox="0 0 22.878 22.91">
  <path id="Path_320" data-name="Path 320" d="M11.212-511.543a11.458,11.458,0,0,0-4.448,1.272,11.415,11.415,0,0,0-4.981,5.084,10.11,10.11,0,0,0-.829,2.177A9.8,9.8,0,0,0,.6-500.192c0,.573.022,1.191.054,1.433a11.518,11.518,0,0,0,1.783,4.9l.323.5-.712,2.1c-.394,1.16-.708,2.11-.7,2.119s.986-.3,2.177-.676,2.182-.694,2.2-.694a3.28,3.28,0,0,1,.408.233c.206.125.636.358.954.511a11.44,11.44,0,0,0,9.174.327,11.553,11.553,0,0,0,6.863-7.75,9.556,9.556,0,0,0,.349-2.907,9.557,9.557,0,0,0-.349-2.907,11.55,11.55,0,0,0-8.534-8.274,10.733,10.733,0,0,0-2.307-.26C11.795-511.552,11.311-511.552,11.212-511.543ZM8.48-506.23a.691.691,0,0,1,.233.246c.13.238,1.223,2.858,1.254,3.02.04.2-.161.546-.6,1.048-.466.524-.564.69-.524.878a9.533,9.533,0,0,0,1.752,2.32,7.469,7.469,0,0,0,3.154,1.877c.345.022.466-.072.994-.771.237-.318.488-.636.564-.708a.642.642,0,0,1,.717-.1c.367.139,2.621,1.236,2.782,1.357l.152.112-.027.475a2.462,2.462,0,0,1-1.622,2.4c-1.075.524-1.917.511-3.561-.058a11.225,11.225,0,0,1-4.972-3.1,16.334,16.334,0,0,1-2.007-2.4,5.7,5.7,0,0,1-1.353-3.9,3.606,3.606,0,0,1,1.111-2.343,1.734,1.734,0,0,1,1.4-.439A1.627,1.627,0,0,1,8.48-506.23Z" transform="translate(-0.6 511.55)" fill="#b9b9bf"/>
</svg>