<svg id="Group_676" data-name="Group 676" xmlns="http://www.w3.org/2000/svg" width="22.361" height="13.242" viewBox="0 0 22.361 13.242">
  <defs>
    <style>
      .cls-1 {
        fill: #f5f5f7;
      }
    </style>
  </defs>
  <path id="Path_203" data-name="Path 203" class="cls-1" d="M6145.389-593.437a3.506,3.506,0,0,0-.441-1.331,2.927,2.927,0,0,0-.691-.8,3.458,3.458,0,0,0-.934-.528,2.984,2.984,0,0,0-.327-.111c-.01,0-.027-.005-.028-.017s.012-.02.024-.025c.039-.019.078-.041.116-.061a3.475,3.475,0,0,0,.966-.722,2.482,2.482,0,0,0,.54-.91,3.031,3.031,0,0,0,.152-.861,4.55,4.55,0,0,0-.034-.769,2.935,2.935,0,0,0-.36-1.118,2.569,2.569,0,0,0-.67-.766,3.363,3.363,0,0,0-.947-.5,6.216,6.216,0,0,0-1.518-.3c-.208-.018-.417-.019-.625-.019h-6.718a.018.018,0,0,0-.014.005.013.013,0,0,0,0,.01v13.183a.072.072,0,0,0,0,.043h6.927c.086-.008.175,0,.263-.008.132-.006.267-.008.4-.025a7.673,7.673,0,0,0,.91-.175,5.138,5.138,0,0,0,1.126-.433,3.684,3.684,0,0,0,1.077-.832,3.421,3.421,0,0,0,.568-.893,3.619,3.619,0,0,0,.271-1.294A4.352,4.352,0,0,0,6145.389-593.437Zm-8.487-6.522c0-.029,0-.047.041-.046.964,0,1.929,0,2.894,0a3.244,3.244,0,0,1,1.035.154,1.336,1.336,0,0,1,.808.671,1.46,1.46,0,0,1,.137.6,1.978,1.978,0,0,1-.1.738,1.229,1.229,0,0,1-.646.7,2.3,2.3,0,0,1-.852.222c-.118.009-.232.008-.35.009h-1.321c-.532,0-1.064,0-1.594,0-.042,0-.05-.01-.05-.048Q6136.9-598.457,6136.9-599.959Zm5.425,7.41a1.42,1.42,0,0,1-.882,1.033,2.863,2.863,0,0,1-.821.2,5.8,5.8,0,0,1-.647.026q-1.51,0-3.021,0c-.044,0-.054-.01-.054-.053,0-.589,0-1.178,0-1.766s0-1.178,0-1.767c0-.04.01-.051.052-.051h3.227a3.275,3.275,0,0,1,.97.128,1.969,1.969,0,0,1,.7.361,1.373,1.373,0,0,1,.451.74A2.441,2.441,0,0,1,6142.326-592.549Z" transform="translate(-6133.874 602.271)"/>
  <path id="Path_204" data-name="Path 204" class="cls-1" d="M6154.6-595.19a5.755,5.755,0,0,0-.727-1.92,4.449,4.449,0,0,0-1.935-1.741,4.427,4.427,0,0,0-1.471-.389,5.932,5.932,0,0,0-1.506.04,4.831,4.831,0,0,0-1.327.408,4.756,4.756,0,0,0-2,1.742,5.4,5.4,0,0,0-.836,2.614,6.641,6.641,0,0,0,.08,1.562,5.314,5.314,0,0,0,.685,1.866,4.321,4.321,0,0,0,1.448,1.474,5.131,5.131,0,0,0,2.375.732,2.2,2.2,0,0,1,.24.017h.5a.081.081,0,0,1,.045-.006c.131,0,.26-.016.391-.028a5.216,5.216,0,0,0,1.45-.348,3.849,3.849,0,0,0,1.72-1.313,5.756,5.756,0,0,0,.752-1.484c.016-.049.033-.1.05-.152l-.027,0h-2.347c-.03,0-.039.012-.046.036a.976.976,0,0,1-.131.269,2.263,2.263,0,0,1-1.264.887,3.08,3.08,0,0,1-1.655-.014,1.859,1.859,0,0,1-1.323-1.2,3.462,3.462,0,0,1-.193-.854c-.012-.108-.018-.218-.027-.327,0-.025,0-.037.03-.034a.255.255,0,0,0,.042,0h7.089c.022,0,.027-.009.028-.03,0-.039.007-.079.007-.118A7.085,7.085,0,0,0,6154.6-595.19Zm-2.674.1c-.1,0-.206,0-.311,0h-4.04c-.06,0-.06,0-.052-.056a2.683,2.683,0,0,1,.209-.834,1.991,1.991,0,0,1,1.457-1.17,2.865,2.865,0,0,1,1.326.028,1.614,1.614,0,0,1,1.013.776,3.508,3.508,0,0,1,.4,1.057c.013.05.02.1.033.152C6151.971-595.1,6151.965-595.086,6151.925-595.087Z" transform="translate(-6132.363 602.028)"/>
  <path id="Path_205" data-name="Path 205" class="cls-1" d="M6133.874-602.267l.009,0v13.236s-.01,0-.009,0v-13.234Z" transform="translate(-6133.874 602.271)"/>
  <path id="Path_206" data-name="Path 206" class="cls-1" d="M6149.639-600.085h-2.729c-.043,0-.055-.01-.055-.054q0-.72,0-1.44c0-.039.009-.05.05-.05q2.731,0,5.462,0c.042,0,.053.012.051.052q0,.72,0,1.44c0,.041-.009.051-.051.051Z" transform="translate(-6132.247 602.331)"/>
</svg>
