<svg xmlns="http://www.w3.org/2000/svg" width="14.5" height="16" viewBox="0 0 14.5 16">
  <g id="Group_1189" data-name="Group 1189" transform="translate(0 0)">
    <path id="Path_413" data-name="Path 413" d="M587.207,214.6a1.907,1.907,0,0,0-.589,1.067.485.485,0,0,1-.456.461c-.018,0-.034.013-.052.018a2.106,2.106,0,0,1-2.21-.483,3.684,3.684,0,0,1-.42-.547,2.188,2.188,0,0,0-1.349-1.011,1.662,1.662,0,0,0-.607.008c-.162.027-.189.143-.083.269a1.123,1.123,0,0,0,.27.241,3.135,3.135,0,0,1,1.262,1.6,2.259,2.259,0,0,0,1.068,1.173,3.11,3.11,0,0,0,1.768.31c.233-.02.465-.058.733-.092,0,.52-.007,1.023,0,1.526.006.325-.013.622-.4.732l5.959-.057a.525.525,0,0,1-.358-.584c.01-.942.019-1.883.009-2.825a2.51,2.51,0,0,0-.657-1.8c-.006-.006,0-.022,0,0,.569-.128,1.139-.222,1.688-.386a3.939,3.939,0,0,0,2.65-2.288,6.281,6.281,0,0,0,.435-2.22,4.084,4.084,0,0,0-1.006-2.976.234.234,0,0,1-.031-.19,3.784,3.784,0,0,0,.005-2.155c-.152-.55-.2-.575-.772-.461a6.484,6.484,0,0,0-2.148.958.407.407,0,0,1-.281.049,10.327,10.327,0,0,0-5,0,.384.384,0,0,1-.266-.045,6.86,6.86,0,0,0-1.847-.887,4.836,4.836,0,0,0-.807-.108.2.2,0,0,0-.161.1,3.684,3.684,0,0,0-.114,2.512.236.236,0,0,1-.052.273,3.835,3.835,0,0,0-.864,1.643,5.678,5.678,0,0,0-.028,2.261,4.254,4.254,0,0,0,1.246,2.552,4.705,4.705,0,0,0,2.233,1.125C586.382,214.457,586.784,214.517,587.207,214.6Z" transform="translate(-581.378 -203.87)" fill="#1a1a1a"/>
    <g id="Component_207_1" data-name="Component 207 – 1" transform="translate(0 0)">
      <path id="Path_414" data-name="Path 414" d="M587.207,214.6c-.423-.079-.825-.139-1.22-.231a4.705,4.705,0,0,1-2.233-1.125,4.254,4.254,0,0,1-1.246-2.552,5.678,5.678,0,0,1,.028-2.261,3.835,3.835,0,0,1,.864-1.643.236.236,0,0,0,.052-.273,3.684,3.684,0,0,1,.114-2.512.2.2,0,0,1,.161-.1,4.836,4.836,0,0,1,.807.108,6.86,6.86,0,0,1,1.847.887.384.384,0,0,0,.266.045,10.327,10.327,0,0,1,5,0,.407.407,0,0,0,.281-.049,6.484,6.484,0,0,1,2.148-.958c.572-.114.619-.089.772.461a3.784,3.784,0,0,1-.005,2.155.234.234,0,0,0,.031.19,4.084,4.084,0,0,1,1.006,2.976,6.281,6.281,0,0,1-.435,2.22,3.939,3.939,0,0,1-2.65,2.288c-.549.164-1.119.258-1.688.386,0-.021-.005,0,0,0a2.51,2.51,0,0,1,.657,1.8c.01.941,0,1.883-.009,2.825a.525.525,0,0,0,.358.584l-5.959.057c.384-.11.4-.407.4-.732-.01-.5,0-1.005,0-1.526-.268.034-.5.072-.733.092a3.11,3.11,0,0,1-1.768-.31,2.259,2.259,0,0,1-1.068-1.173,3.135,3.135,0,0,0-1.262-1.6,1.123,1.123,0,0,1-.27-.241c-.107-.126-.079-.243.083-.269a1.662,1.662,0,0,1,.607-.008,2.188,2.188,0,0,1,1.349,1.011,3.684,3.684,0,0,0,.42.547,2.106,2.106,0,0,0,2.21.483c.018,0,.034-.014.052-.018a.485.485,0,0,0,.456-.461A1.907,1.907,0,0,1,587.207,214.6Z" transform="translate(-581.378 -203.87)" fill="#1a1a1a"/>
    </g>
  </g>
</svg>
