<svg id="Group_677" data-name="Group 677" xmlns="http://www.w3.org/2000/svg" width="15.891" height="15.891" viewBox="0 0 15.891 15.891">
  <defs>
    <style>
      .cls-1 {
        fill: #f5f5f7;
      }
    </style>
  </defs>
  <path id="Path_197" data-name="Path 197" class="cls-1" d="M6147.434-642.6H6136.2a2.33,2.33,0,0,0-2.327,2.328v11.235a2.329,2.329,0,0,0,2.327,2.327h11.236a2.328,2.328,0,0,0,2.328-2.327v-11.235A2.329,2.329,0,0,0,6147.434-642.6Zm-5.618,12.373a4.425,4.425,0,0,1-4.426-4.427,4.425,4.425,0,0,1,4.426-4.427,4.427,4.427,0,0,1,4.427,4.427A4.427,4.427,0,0,1,6141.816-630.228Zm5.12-8.5a1.017,1.017,0,0,1-1.017-1.018,1.017,1.017,0,0,1,1.017-1.018,1.017,1.017,0,0,1,1.018,1.018A1.017,1.017,0,0,1,6146.937-638.728Z" transform="translate(-6133.871 642.601)"/>
  <ellipse id="Ellipse_40" data-name="Ellipse 40" class="cls-1" cx="2.75" cy="2.75" rx="2.75" ry="2.75" transform="translate(5.194 5.229)"/>
</svg>
