<svg xmlns="http://www.w3.org/2000/svg" width="52.538" height="35" viewBox="0 0 52.538 35"><g transform="translate(-195.128 -24.023)"><path d="M3051.979,911.042v3.123h-13.934v-3.123Z" transform="translate(-2804.693 -878.71)" fill="#f5f5f7"/><path d="M2797.822,869.176h-5.762l-.924,2.727H2787.2l5.586-15.439h4.355l5.585,15.439h-3.98Zm-.968-2.9-1.913-5.652-1.892,5.652Z" transform="translate(-2592.072 -832.44)" fill="#f5f5f7"/><path d="M2918.249,856.464V871.9h-3.76v-9.259l-3.453,9.259H2908l-3.474-9.281V871.9h-3.761V856.464h4.442l4.333,10.689,4.289-10.689Z" transform="translate(-2688.325 -832.44)" fill="#f5f5f7"/><path d="M2839.654,996.635h-5.762l-.924,2.727h-3.937l5.586-15.439h4.355l5.586,15.439h-3.981Zm-.968-2.9-1.913-5.652-1.892,5.652Z" transform="translate(-2627.56 -940.448)" fill="#f5f5f7"/><path d="M2950.468,999.361l-3.211-5.828h-.9v5.828h-3.76V983.923h6.311a6.952,6.952,0,0,1,3.112.638,4.4,4.4,0,0,1,1.924,1.748,4.884,4.884,0,0,1,.638,2.474,4.592,4.592,0,0,1-.869,2.749,4.675,4.675,0,0,1-2.562,1.715l3.563,6.114Zm-4.112-8.489h2.331a2.133,2.133,0,0,0,1.551-.506,1.908,1.908,0,0,0,.517-1.43,1.849,1.849,0,0,0-.517-1.386,2.135,2.135,0,0,0-1.551-.506h-2.331Z" transform="translate(-2723.795 -940.448)" fill="#f5f5f7"/><path d="M3033.942,986.556a7.075,7.075,0,0,1,2.761-2.793,8.011,8.011,0,0,1,4.014-1,7.681,7.681,0,0,1,4.706,1.451,6.973,6.973,0,0,1,2.617,3.959h-4.134a3.347,3.347,0,0,0-1.309-1.474,3.682,3.682,0,0,0-1.924-.506,3.592,3.592,0,0,0-2.815,1.21,5.388,5.388,0,0,0,0,6.466,3.591,3.591,0,0,0,2.815,1.21,3.678,3.678,0,0,0,1.924-.506,3.344,3.344,0,0,0,1.309-1.474h4.134a6.921,6.921,0,0,1-2.617,3.948,7.721,7.721,0,0,1-4.706,1.44,8.008,8.008,0,0,1-4.014-1,7.093,7.093,0,0,1-2.761-2.782,8.884,8.884,0,0,1,0-8.148Z" transform="translate(-2800.374 -939.463)" fill="#f5f5f7"/></g></svg>