<svg xmlns="http://www.w3.org/2000/svg" viewBox="0 0 288.01 335.95"><defs><style>.cls-1{fill:#fff;}</style></defs><g id="Layer_2" data-name="Layer 2"><g id="Layer_1-2" data-name="Layer 1"><path class="cls-1" d="M0,168.33Q0,104.76,0,41.19c0-19.57,12.36-35.35,31-40C42-1.56,52,.64,61.6,6.22q53.46,31,107,61.89,48.65,28.11,97.28,56.25c11.68,6.78,19.17,16.82,21.37,30.16,3.18,19.19-3.61,34.58-19.89,45.08C238.82,218,210,236,181.27,254.14q-59.39,37.53-118.78,75.05c-23.34,14.7-52.7,4.46-60.55-21.2A47.88,47.88,0,0,1,.1,294.34C0,252.33,0,210.33,0,168.33Z"/></g></g></svg>