<svg id="telegram" xmlns="http://www.w3.org/2000/svg" width="17.617" height="14.567" viewBox="0 0 17.617 14.567">
  <defs>
    <style>
      .cls-1 {
        fill: #f5f5f7;
      }
    </style>
  </defs>
  <path id="Path_313" data-name="Path 313" class="cls-1" d="M87.8,152.4s7.791-3.2,10.494-4.324c1.036-.45,4.549-1.892,4.549-1.892s1.621-.63,1.486.9c-.045.631-.405,2.837-.766,5.224-.54,3.378-1.126,7.071-1.126,7.071s-.09,1.036-.856,1.216a3.7,3.7,0,0,1-2.252-.811c-.18-.135-3.378-2.162-4.549-3.153a.853.853,0,0,1,.045-1.441c1.621-1.486,3.558-3.333,4.729-4.5.54-.54,1.081-1.8-1.171-.27-3.2,2.207-6.35,4.279-6.35,4.279a2.646,2.646,0,0,1-2.072.045c-1.351-.405-2.927-.946-2.927-.946S85.953,153.122,87.8,152.4Z" transform="translate(-86.72 -146.058)"/>
</svg>
