<svg id="Group_678" data-name="Group 678" xmlns="http://www.w3.org/2000/svg" width="20.544" height="14.567" viewBox="0 0 20.544 14.567">
  <defs>
    <style>
      .cls-1 {
        fill: #f5f5f7;
      }
    </style>
  </defs>
  <path id="Path_207" data-name="Path 207" class="cls-1" d="M6149.76-668.506a4.2,4.2,0,0,1-2.634-1.051l.194-.919.01-.034c.174-.979.728-2.621,2.43-2.621a2.319,2.319,0,0,1,2.316,2.315,2.324,2.324,0,0,1-2.316,2.31Zm0-6.97a4.717,4.717,0,0,0-4.545,3.737,19.174,19.174,0,0,1-2.3-5.043h-2.341v6.09a2.183,2.183,0,0,1-2.178,2.179,2.184,2.184,0,0,1-2.18-2.179v-6.09h-2.339v6.09a4.532,4.532,0,0,0,4.515,4.541,4.544,4.544,0,0,0,4.524-4.541v-1.022a14.545,14.545,0,0,0,1.69,2.758l-1.434,6.741h2.4l1.039-4.889a5.766,5.766,0,0,0,3.158.949,4.675,4.675,0,0,0,4.657-4.669,4.663,4.663,0,0,0-4.657-4.651Z" transform="translate(-6133.873 676.783)"/>
</svg>
