<svg xmlns="http://www.w3.org/2000/svg" width="17.877" height="17.902" viewBox="0 0 17.877 17.902">
  <defs>
    <style>
      .cls-1 {
        fill: #f5f5f7;
      }
    </style>
  </defs>
  <path id="Path_320" data-name="Path 320" class="cls-1" d="M8.893-511.545a8.956,8.956,0,0,0-3.476.994,8.92,8.92,0,0,0-3.893,3.973,7.9,7.9,0,0,0-.648,1.7,7.659,7.659,0,0,0-.277,2.2c0,.448.018.931.042,1.12a9,9,0,0,0,1.393,3.826l.252.389L1.731-495.7c-.308.907-.553,1.649-.546,1.656s.77-.231,1.7-.529,1.7-.543,1.722-.543a2.564,2.564,0,0,1,.319.182c.161.1.5.28.746.4a8.939,8.939,0,0,0,7.169.255,9.027,9.027,0,0,0,5.363-6.056,7.467,7.467,0,0,0,.273-2.272,7.468,7.468,0,0,0-.273-2.272,9.025,9.025,0,0,0-6.668-6.465,8.39,8.39,0,0,0-1.8-.2C9.348-511.552,8.97-511.552,8.893-511.545Zm-2.135,4.152a.539.539,0,0,1,.182.193c.1.186.956,2.233.98,2.359.032.158-.126.427-.473.819-.364.41-.441.539-.41.686a7.449,7.449,0,0,0,1.369,1.813,5.836,5.836,0,0,0,2.464,1.467c.27.017.364-.056.777-.6.186-.249.382-.5.441-.553a.5.5,0,0,1,.56-.08c.287.109,2.048.966,2.174,1.061l.119.087-.021.371a1.924,1.924,0,0,1-1.267,1.876,3.167,3.167,0,0,1-2.783-.046,8.772,8.772,0,0,1-3.886-2.419,12.767,12.767,0,0,1-1.568-1.876,4.454,4.454,0,0,1-1.057-3.045,2.817,2.817,0,0,1,.868-1.831,1.355,1.355,0,0,1,1.092-.343A1.273,1.273,0,0,1,6.757-507.393Z" transform="translate(-0.6 511.55)"/>
</svg>
